<?xml version="1.0" encoding="UTF-8" standalone="no"?>
<!-- Created with Inkscape (http://www.inkscape.org/) -->

<svg
   xmlns:dc="http://purl.org/dc/elements/1.1/"
   xmlns:cc="http://creativecommons.org/ns#"
   xmlns:rdf="http://www.w3.org/1999/02/22-rdf-syntax-ns#"
   xmlns:svg="http://www.w3.org/2000/svg"
   xmlns="http://www.w3.org/2000/svg"
   xmlns:sodipodi="http://sodipodi.sourceforge.net/DTD/sodipodi-0.dtd"
   xmlns:inkscape="http://www.inkscape.org/namespaces/inkscape"
   width="398.077"
   height="423.81699"
   viewBox="0 0 105.32454 112.13491"
   version="1.1"
   id="svg1767"
   inkscape:version="0.92.5 (2060ec1f9f, 2020-04-08)"
   sodipodi:docname="logo.svg">
  <defs
     id="defs1761" />
  <sodipodi:namedview
     id="base"
     pagecolor="#ffffff"
     bordercolor="#666666"
     borderopacity="1.0"
     inkscape:pageopacity="0.0"
     inkscape:pageshadow="2"
     inkscape:zoom="1.8073846"
     inkscape:cx="228.65154"
     inkscape:cy="310.06809"
     inkscape:document-units="px"
     inkscape:current-layer="layer1"
     showgrid="false"
     units="px"
     inkscape:window-width="1848"
     inkscape:window-height="1016"
     inkscape:window-x="72"
     inkscape:window-y="27"
     inkscape:window-maximized="1" />
  <metadata
     id="metadata1764">
    <rdf:RDF>
      <cc:Work
         rdf:about="">
        <dc:format>image/svg+xml</dc:format>
        <dc:type
           rdf:resource="http://purl.org/dc/dcmitype/StillImage" />
        <dc:title></dc:title>
      </cc:Work>
    </rdf:RDF>
  </metadata>
  <g
     inkscape:label="Layer 1"
     inkscape:groupmode="layer"
     id="layer1"
     transform="translate(0,-184.86507)">
    <g
       transform="matrix(0.35277777,0,0,-0.35277777,-35.457186,333.93239)"
       id="g1287"
       inkscape:label="Tiger front">
      <g
         transform="translate(184.5474,142.958)"
         id="g140">
        <path
           inkscape:connector-curvature="0"
           id="path142"
           style="fill:#000000;fill-opacity:1;fill-rule:evenodd;stroke:none"
           d="m 0,0 c -0.333,-0.335 -0.676,-0.656 -1.03,-0.966 -3.803,-3.32 -17.561,-6.277 -20.163,-2.815 6.337,5.761 2.333,15.424 -4.387,19.867 -3.911,2.588 -7.641,5.528 -10.894,8.841 -2.8,-1.952 -14.433,-6.577 -16.918,-4.679 2.007,8.804 -1.17,17.315 -2.431,20.53 -1.623,4.137 -3.56,8.161 -5.234,12.283 -2.687,6.616 -4.652,13.322 -5.391,20.321 -0.317,-0.023 -0.634,-0.035 -0.952,-0.043 -2.847,-0.058 -11.545,-1.164 -12.945,1.028 -0.518,0.81 7.625,2.215 5.65,20.483 -0.558,6.25 -1.62,12.299 -2.416,18.526 -0.883,6.913 -1.446,14.207 -0.293,21.159 l -6.635,-2.589 c 0.046,16.991 13.307,33.461 21.214,39.267 2.107,1.549 4.29,2.999 6.451,4.477 -0.122,0.13 -0.241,0.262 -0.358,0.395 l -4.96,5.695 c -0.558,0.64 -0.744,1.415 -0.533,2.216 0.212,0.801 0.762,1.406 1.576,1.732 l 7.233,2.9 c 2.614,1.048 5.035,3.481 6.728,5.847 -17.089,20.991 -13.167,47.607 -0.343,68.004 4.457,7.089 10.237,11.204 16.245,17.116 1.021,-0.503 0.591,-1.492 0.452,-2.56 -0.947,-7.211 4.439,-18.125 8.442,-24.085 19.117,-28.449 45.555,20.372 86.788,0.181 41.234,20.191 67.671,-28.63 86.789,-0.181 4.003,5.96 9.389,16.874 8.441,24.085 -0.138,1.068 0.414,2.057 1.436,2.56 25.162,-19.869 36.23,-58.945 14.917,-85.12 3.874,-5.411 17.008,-9.913 17.085,-10.199 0.128,-0.49 -6.303,-7.342 -7.039,-8.191 -0.117,-0.133 -0.236,-0.265 -0.358,-0.395 2.163,-1.478 4.344,-2.928 6.451,-4.477 9.924,-7.289 16.922,-15.515 20.034,-27.102 0.265,-0.988 2.183,-7.125 1.822,-7.715 -0.341,-0.561 -6.251,-1.528 -7.277,-1.861 1.154,-6.952 0.591,-14.246 -0.294,-21.159 -0.794,-6.227 -1.997,-12.417 -2.557,-18.668 -0.968,-10.846 2.589,-18.785 5.791,-20.341 -1.398,-2.192 -10.097,-1.086 -12.945,-1.028 -0.318,0.008 -0.633,0.02 -0.951,0.043 -0.739,-6.999 -2.703,-13.705 -5.391,-20.321 -1.674,-4.122 -3.61,-8.146 -5.234,-12.283 -2.731,-6.959 -4.401,-16.997 -2.433,-20.53 -9.575,-1.109 -14.56,3.036 -16.916,4.679 -3.255,-3.313 -6.981,-6.253 -10.895,-8.841 -2.794,-1.849 -5.889,-4.55 -6.755,-7.76 -1.083,-4.024 0.409,-10.252 2.369,-12.107 -2.421,-3.223 -16.276,-0.578 -20.163,2.815 -0.033,0.029 -0.071,0.061 -0.103,0.09 -0.386,-0.346 -0.779,-0.689 -1.183,-1.029 -1.118,-0.946 -2.317,-1.842 -3.454,-2.773 -2.7,-2.204 -4.624,-7.516 -2.785,-10.696 -1.901,-1.396 -8.335,1.238 -10.738,1.928 -0.076,0.021 -0.153,0.043 -0.23,0.067 -2.698,-2.072 -5.871,-3.707 -9.203,-4.623 -30.261,-8.315 -13.777,-15.786 -10.705,-17.915 -1.508,-3.94 -29.311,-3.014 -37.78,3.437 -0.797,-1.082 -3.301,-5.382 -4.068,-5.338 -1.292,12.299 -12.96,16.807 -23.908,19.816 -3.332,0.916 -6.506,2.551 -9.202,4.623 -0.078,-0.024 -0.155,-0.046 -0.232,-0.067 -2.762,-3.208 -8.902,-4.09 -9.263,-3.825 -0.41,2.583 2.31,7.551 -7.311,16.651 C 0.439,-0.413 0.22,-0.206 0,0" />
      </g>
      <g
         transform="translate(316.2168,158.7793)"
         id="g144">
        <path
           inkscape:connector-curvature="0"
           id="path146"
           style="fill:#d3ccc1;fill-opacity:1;fill-rule:evenodd;stroke:none"
           d="m 0,0 c -2.477,-11.798 -16.966,-15.342 -16.551,-21.525 0,0 -2.89,0.856 -3.681,4.283 0,0 -2.756,-6.61 -10.771,-8.813 -8.018,-2.202 -18.928,-5.263 -22.607,-11.871 0,0 -3.574,3.703 -1.339,9.457 -5.841,-3.336 -7.372,-12.85 -2.211,-17.657 0,0 -16.116,-1.534 -20.96,13.826 -0.171,-3.361 -1.815,-5.626 -1.815,-5.626 -3.68,6.608 -14.589,9.669 -22.606,11.871 -8.017,2.203 -10.774,8.813 -10.774,8.813 -0.788,-3.427 -3.68,-4.283 -3.68,-4.283 0.414,6.183 -17.99,17.47 -16.551,21.525 1.44,4.054 22.848,40.024 22.848,40.024 L -3.453,24.849 Z" />
      </g>
      <g
         transform="translate(110.3008,279.3989)"
         id="g148">
        <path
           inkscape:connector-curvature="0"
           id="path150"
           style="fill:#000000;fill-opacity:1;fill-rule:evenodd;stroke:none"
           d="m 0,0 c -0.727,0.088 -1.44,0.238 -2.13,0.461 l -5.15,1.666 1.322,4.925 c 2.969,11.053 9.653,18.798 19.075,25.719 2.952,2.169 6.055,4.146 9.034,6.271 -0.929,0.629 -1.777,1.367 -2.51,2.209 l -4.961,5.695 7.234,2.899 c 3.568,1.432 6.876,4.888 8.976,8.374 -8.706,9.875 -10.786,20.694 -11.901,33.697 l -0.031,0.347 0.017,0.348 c 1.057,21.63 6.905,35.847 22.219,48.292 -1.314,-10.014 8.425,-29.953 21.172,-38.779 4.381,1.626 9.08,4.243 13.148,6.329 6.41,3.29 12.856,6.504 19.635,9.093 14.58,5.57 30.146,7.91 43.994,0.483 13.848,7.427 29.415,5.087 43.994,-0.483 6.779,-2.589 13.225,-5.803 19.635,-9.093 4.067,-2.086 8.767,-4.703 13.149,-6.329 12.746,8.826 22.484,28.765 21.17,38.779 15.313,-12.445 21.162,-26.662 22.22,-48.292 l 0.017,-0.348 -0.031,-0.347 c -1.115,-13.003 -3.194,-23.822 -11.9,-33.697 2.1,-3.486 5.407,-6.942 8.976,-8.374 l 7.232,-2.899 -4.96,-5.695 c -0.734,-0.842 -1.581,-1.58 -2.509,-2.209 2.978,-2.125 6.082,-4.102 9.033,-6.271 9.422,-6.921 16.106,-14.666 19.074,-25.719 l 1.322,-4.925 -5.149,-1.666 C 279.727,0.238 279.013,0.088 278.285,0 c 1.704,-7.419 1.069,-15.546 0.147,-22.763 -0.798,-6.241 -2.008,-12.505 -2.566,-18.757 -0.247,-2.772 -0.6,-8.223 0.938,-10.728 l 5.228,-8.522 -10.531,0.218 c -1.2,0.023 -2.378,0.172 -3.519,0.433 -0.429,-7.544 -2.357,-14.755 -5.446,-22.36 -1.677,-4.128 -3.621,-8.169 -5.245,-12.31 -1.19,-3.034 -2.282,-6.342 -2.379,-9.595 -0.018,-0.6 -0.002,-1.201 0.051,-1.8 l 0.731,-8.037 -8.318,2.234 c -2.213,0.593 -4.556,1.906 -6.27,3.3 -0.303,0.245 -0.592,0.499 -0.87,0.759 -3.504,-3.958 -7.776,-7.418 -12.202,-10.348 -3.372,-2.228 -6.784,-5.356 -7.825,-9.219 -0.298,-1.104 -0.468,-2.812 -0.101,-3.935 l 2.881,-7.333 h -8.524 c -2.79,0 -5.545,1.488 -7.524,3.215 -4.18,3.652 -6.656,9.502 -8.196,14.52 -1.094,3.559 -3.252,20.485 -7.138,21.405 -0.779,0.187 -1.76,0.325 -2.753,0.387 -2.896,-5.344 -8.064,-9.937 -14.443,-10.896 -6.382,-0.958 -15.039,2.504 -20.928,4.713 -3.388,1.271 -10.796,4.274 -14.34,4.274 -3.544,0 -10.952,-3.003 -14.339,-4.274 -5.889,-2.209 -14.548,-5.671 -20.929,-4.713 -6.378,0.959 -11.548,5.552 -14.442,10.896 -0.993,-0.062 -1.975,-0.2 -2.754,-0.387 -3.887,-0.92 -6.045,-17.846 -7.138,-21.405 -1.539,-5.018 -4.017,-10.868 -8.198,-14.52 -1.977,-1.727 -4.732,-3.215 -7.522,-3.215 h -8.524 l 2.88,7.333 c 0.368,1.123 0.198,2.831 -0.099,3.935 -1.041,3.863 -4.454,6.991 -7.826,9.219 -4.428,2.93 -8.697,6.39 -12.201,10.348 -0.279,-0.26 -0.569,-0.514 -0.871,-0.759 -1.715,-1.394 -4.056,-2.707 -6.269,-3.3 l -8.32,-2.234 0.732,8.037 c 0.054,0.599 0.07,1.2 0.052,1.8 -0.097,3.253 -1.189,6.561 -2.38,9.595 -1.624,4.141 -3.568,8.182 -5.245,12.31 -3.089,7.605 -5.016,14.816 -5.446,22.36 -1.142,-0.261 -2.32,-0.41 -3.518,-0.433 l -10.533,-0.218 5.23,8.522 c 1.537,2.505 1.185,7.956 0.938,10.728 -0.559,6.252 -1.769,12.516 -2.567,18.757 C -1.068,-15.546 -1.704,-7.419 0,0" />
      </g>
      <g
         transform="translate(249.4438,184.3652)"
         id="g152">
        <path
           inkscape:connector-curvature="0"
           id="path154"
           style="fill:#6c6357;fill-opacity:1;fill-rule:evenodd;stroke:none"
           d="m 0,0 c -8.79,0 -26.17,-10.281 -34.319,-9.056 -8.148,1.223 -11.302,10.77 -11.302,10.77 0,0 -15.506,-12.477 -19.712,-26.183 -4.206,-13.709 -9.989,-13.709 -9.989,-13.709 0,0 3.946,10.159 -10.117,19.462 -14.062,9.301 -16.426,17.867 -16.426,17.867 -0.132,-8.688 -8.016,-10.769 -8.016,-10.769 1.442,15.861 -16.929,30.52 -12.352,58.625 -2.76,-6.855 -10.253,-6.976 -10.253,-6.976 7.511,12.239 -10.168,47.106 3.813,63.521 -6.44,-4.16 -10.645,-2.814 -10.645,-2.814 5.86,21.826 28.213,26.614 33.646,36.35 -5.913,-1.101 -9.2,2.692 -9.2,2.692 9.463,3.795 13.67,14.444 13.67,14.444 -9.704,9.356 -11.841,19.536 -13.01,33.168 1.051,21.541 11.831,36.319 11.831,36.319 1.314,-10.526 19.748,-34.492 26.81,-32.067 16.035,5.506 50.005,32.069 75.571,14.809 25.565,17.26 59.537,-9.303 75.571,-14.809 7.062,-2.425 25.497,21.541 26.809,32.067 0,0 10.781,-14.778 11.832,-36.319 -1.17,-13.632 -3.306,-23.812 -13.009,-33.168 0,0 4.206,-10.649 13.668,-14.444 0,0 -3.285,-3.793 -9.199,-2.692 5.433,-9.736 27.786,-14.524 33.646,-36.35 0,0 -4.206,-1.346 -10.644,2.814 13.98,-16.415 -3.699,-51.282 3.812,-63.521 0,0 -7.493,0.121 -10.252,6.976 4.575,-28.105 -13.795,-42.764 -12.352,-58.625 0,0 -7.885,2.081 -8.017,10.769 0,0 -2.364,-8.566 -16.426,-17.867 -14.064,-9.303 -10.117,-19.462 -10.117,-19.462 0,0 -5.782,0 -9.989,13.709 -4.206,13.706 -19.711,26.183 -19.711,26.183 0,0 -3.156,-9.547 -11.304,-10.77 C 26.17,-10.281 8.79,0 0,0" />
      </g>
      <g
         transform="translate(229.8057,294.4497)"
         id="g156">
        <path
           inkscape:connector-curvature="0"
           id="path158"
           style="fill:#d3ccc1;fill-opacity:1;fill-rule:evenodd;stroke:none"
           d="m 0,0 1.77,-2.33 c 0,0 2.703,-3.354 -2.33,-23.191 -5.032,-19.836 -16.384,-38.91 -2.925,-50.792 13.461,-11.879 -1.727,-7.247 -5.851,-3.705 -4.124,3.543 -7.023,12.207 -7.374,16.132 -0.351,3.923 -1.066,3.928 -1.066,3.928 l 2.178,1.248 -0.327,3.041 c 0,0 0.594,3.132 0.839,8.46 0.244,5.325 6.92,34.06 6.92,34.06 l -1.492,8.57 c -2.237,3.431 -7.997,9.145 -18.819,10.327 -14.79,1.615 -36.803,-2.862 -36.803,-2.862 -0.053,17.845 12.927,37.197 31.888,44.826 18.96,7.63 35.114,8.859 35.114,8.859 -10.427,-7.618 -29.499,-26.192 -19.028,-34.542 10.471,-8.35 16.864,-18.8 16.864,-18.8 z m 47.822,-7.092 -1.009,5.924 c 0,0 3.288,5.411 7.735,8.3 0,0 -4.555,0.369 -15.452,-8.465 l 0.625,4.562 c 0,0 6.393,10.45 16.865,18.8 10.47,8.35 -8.603,26.924 -19.03,34.542 0,0 16.155,-1.229 35.115,-8.859 18.961,-7.629 31.941,-26.981 31.887,-44.826 0,0 -22.013,4.477 -36.802,2.862 C 52.965,4.133 47.626,-5.953 47.822,-7.092" />
      </g>
      <g
         transform="translate(249.4438,183.5244)"
         id="g160">
        <path
           inkscape:connector-curvature="0"
           id="path162"
           style="fill:#d3ccc1;fill-opacity:1;fill-rule:evenodd;stroke:none"
           d="m 0,0 c -8.79,0 -26.17,-10.282 -34.319,-9.059 -8.148,1.224 -13.691,8.384 -13.691,8.384 0,0 -13.117,-9.247 -17.323,-22.953 -4.206,-13.709 -9.989,-13.709 -9.989,-13.709 0,0 3.946,10.159 -10.117,19.462 -14.062,9.301 -16.426,17.867 -16.426,17.867 -0.132,-8.688 -8.016,-10.769 -8.016,-10.769 1.442,15.861 -16.929,30.52 -12.352,58.625 -2.76,-6.855 -10.253,-6.976 -10.253,-6.976 7.511,12.238 -10.168,47.106 3.813,63.521 -6.44,-4.161 -10.645,-2.813 -10.645,-2.813 5.86,21.825 28.213,26.612 33.646,36.349 -5.913,-1.101 -9.2,2.692 -9.2,2.692 9.463,3.795 13.67,14.443 13.67,14.443 -0.955,0.92 -1.834,1.85 -2.649,2.788 l 5.08,0.281 5.865,-0.188 c 0,0 -0.656,-3.948 -4.403,-8.198 0,0 3.747,-0.491 11.354,5.177 0,0 -0.232,-10.351 -10.18,-21.686 -9.949,-11.337 -18.471,-29.46 -18.95,-34.185 l 21.073,26.503 c 0,0 -4.463,-20 -4.931,-29.264 -0.469,-9.267 7.738,-21.571 7.738,-21.571 l 5.5,1.632 4.799,-7.195 27.737,-1.361 8.368,4.088 4.853,8.95 c 0,0 -2.103,-13.961 -3.39,-17.121 -1.287,-3.162 -5.704,-4.221 -11.119,-6.759 0,0 -1.404,-1.143 -0.469,-3.214 0.936,-2.071 9.01,-11.935 11.41,-13.243 2.401,-1.308 4.394,1.79 4.629,3.706 0.235,1.915 4.033,-7.792 5.788,-9.754 1.756,-1.963 12.875,-6.215 15.099,-6.54 2.223,-0.327 18,-16.019 18,-16.019 0,0 15.778,15.692 18.001,16.019 2.224,0.325 13.343,4.577 15.098,6.54 1.756,1.962 5.553,11.669 5.787,9.754 0.236,-1.916 2.229,-5.014 4.63,-3.706 2.4,1.308 10.474,11.172 11.41,13.243 0.935,2.071 -0.47,3.214 -0.47,3.214 -5.414,2.538 -9.831,3.597 -11.119,6.759 -1.288,3.16 -3.388,17.121 -3.388,17.121 l 4.851,-8.95 8.368,-4.088 27.739,1.361 4.799,7.195 5.499,-1.632 c 0,0 8.206,12.304 7.738,21.571 -0.469,9.264 -4.931,29.264 -4.931,29.264 l 21.072,-26.503 c -0.48,4.725 -8.999,22.848 -18.949,34.185 -9.948,11.335 -10.18,21.686 -10.18,21.686 7.607,-5.668 11.352,-5.177 11.352,-5.177 -3.745,4.25 -4.401,8.198 -4.401,8.198 l 5.864,0.188 5.081,-0.281 c -0.816,-0.938 -1.693,-1.868 -2.648,-2.788 0,0 4.206,-10.648 13.668,-14.443 0,0 -3.285,-3.793 -9.199,-2.692 5.433,-9.737 27.786,-14.524 33.646,-36.349 0,0 -4.206,-1.348 -10.644,2.813 13.98,-16.415 -3.699,-51.283 3.812,-63.521 0,0 -7.493,0.121 -10.252,6.976 4.575,-28.105 -13.795,-42.764 -12.352,-58.625 0,0 -7.885,2.081 -8.017,10.769 0,0 -2.364,-8.566 -16.426,-17.867 -14.064,-9.303 -10.117,-19.462 -10.117,-19.462 0,0 -5.782,0 -9.989,13.709 -4.206,13.706 -19.711,25.339 -19.711,25.339 0,0 -3.156,-9.546 -11.304,-10.77 C 26.17,-10.282 8.79,0 0,0" />
      </g>
      <g
         transform="translate(290.0674,298.3833)"
         id="g164">
        <path
           inkscape:connector-curvature="0"
           id="path166"
           style="fill:#d3ccc1;fill-opacity:1;fill-rule:evenodd;stroke:none"
           d="m 0,0 c -1.521,-0.163 -10.124,-5.558 -11.763,-8.174 -1.638,-2.618 3.475,-9.828 5.033,-10.3 1.554,-0.474 14.044,0 17.965,2.725 3.921,2.725 5.702,7.232 5.384,10.462 -0.318,3.23 -1.111,6.432 -2.458,6.595 C 12.815,1.472 0,0 0,0" />
      </g>
      <g
         transform="translate(192.4551,299.5796)"
         id="g168">
        <path
           inkscape:connector-curvature="0"
           id="path170"
           style="fill:#d3ccc1;fill-opacity:1;fill-rule:evenodd;stroke:none"
           d="m 0,0 c 0,0 19.123,-0.254 23.408,-4.142 4.285,-3.886 4.565,-5.34 4.799,-8.065 0.234,-2.725 -1.288,-8.065 -7.374,-8.938 C 14.747,-22.017 6.554,-21.689 3.394,-17.332 0.234,-12.97 0,0 0,0" />
      </g>
      <g
         transform="translate(249.4438,215.6406)"
         id="g172">
        <path
           inkscape:connector-curvature="0"
           id="path174"
           style="fill:#000000;fill-opacity:1;fill-rule:evenodd;stroke:none"
           d="m 0,0 c 0,0 8.148,3.06 13.536,5.997 5.39,2.937 5.916,4.407 13.67,-5.018 0,0 10.252,8.445 6.177,23.376 0,0 -0.492,1.073 0.363,1.346 0.853,0.277 13.011,-20.257 -3.024,-29.68 -16.034,-9.425 -25.628,-10.632 -26.155,-28.503 0,0 -0.066,-4.651 -4.567,-4.651 -4.5,0 -4.567,4.651 -4.567,4.651 -0.526,17.871 -10.121,19.078 -26.155,28.503 -16.034,9.423 -3.877,29.957 -3.023,29.68 0.855,-0.273 0.362,-1.346 0.362,-1.346 -4.075,-14.931 6.177,-23.376 6.177,-23.376 7.754,9.425 8.28,7.955 13.669,5.018 C -8.148,3.06 0,0 0,0" />
      </g>
      <g
         transform="translate(351.29,413.186)"
         id="g176">
        <path
           inkscape:connector-curvature="0"
           id="path178"
           style="fill:#000000;fill-opacity:1;fill-rule:evenodd;stroke:none"
           d="m 0,0 1.519,-6.585 c 0,0 11.886,-29.644 -19.393,-50.94 0,0 4.074,5.385 2.628,11.504 -1.446,6.119 -11.029,8.844 -11.029,8.844 0,0 19.571,14.286 26.275,37.177" />
      </g>
      <g
         transform="translate(299.2617,173.1533)"
         id="g180">
        <path
           inkscape:connector-curvature="0"
           id="path182"
           style="fill:#000000;fill-opacity:1;fill-rule:evenodd;stroke:none"
           d="m 0,0 -2.79,2.673 c 0,0 3.167,14.665 2.117,20.539 -1.054,5.874 -9.988,11.383 -9.988,11.383 0,0 10.292,-3.013 13.972,-9.131 C 6.99,19.345 -0.107,-7.599 -0.107,-7.599 Z" />
      </g>
      <g
         transform="translate(381.9297,224.3965)"
         id="g184">
        <path
           inkscape:connector-curvature="0"
           id="path186"
           style="fill:#000000;fill-opacity:1;fill-rule:evenodd;stroke:none"
           d="M 0,0 C -15.232,6.959 -1.814,34.03 -10.859,43.993 -7.355,33.302 -22.021,-1.788 0,0" />
      </g>
      <g
         transform="translate(388.7617,285.103)"
         id="g188">
        <path
           inkscape:connector-curvature="0"
           id="path190"
           style="fill:#000000;fill-opacity:1;fill-rule:evenodd;stroke:none"
           d="M 0,0 C -8.697,10.949 -20.713,16.969 -30.699,17.436 -18.194,11.304 -12.278,6.479 -7.919,-1.355 -5.989,-4.819 2.154,-2.712 0,0" />
      </g>
      <g
         transform="translate(361.5225,169.3125)"
         id="g192">
        <path
           inkscape:connector-curvature="0"
           id="path194"
           style="fill:#000000;fill-opacity:1;fill-rule:evenodd;stroke:none"
           d="m 0,0 -2.196,3.435 c 0,0 -6.742,3.051 -5.033,19.207 0,0 -2.385,-7.712 -4.198,-11.148 l 0.057,-2.806 c 0,0 1.906,-3.671 2.498,-4.344 C -8.281,3.671 0,0 0,0" />
      </g>
      <g
         transform="translate(299.666,137.2539)"
         id="g196">
        <path
           inkscape:connector-curvature="0"
           id="path198"
           style="fill:#000000;fill-opacity:1;fill-rule:evenodd;stroke:none"
           d="m 0,0 c 0,0 -4.87,4.709 2.783,13.021 0,0 -8.276,-4.842 -8.385,-11.772 l 1.683,0.388 c 0,0 3.482,-3.733 3.919,-1.637" />
      </g>
      <g
         transform="translate(261.8398,116.9219)"
         id="g200">
        <path
           inkscape:connector-curvature="0"
           id="path202"
           style="fill:#000000;fill-opacity:1;fill-rule:evenodd;stroke:none"
           d="m 0,0 0.767,3.932 c 0,0 -2.738,7.451 7.119,12.529 0,0 -6.914,0.071 -11.141,-5.364 l 0.364,-1.918 z" />
      </g>
      <g
         transform="translate(147.5981,413.186)"
         id="g204">
        <path
           inkscape:connector-curvature="0"
           id="path206"
           style="fill:#000000;fill-opacity:1;fill-rule:evenodd;stroke:none"
           d="m 0,0 -1.518,-6.585 c 0,0 -11.888,-29.644 19.393,-50.94 0,0 -4.075,5.385 -2.629,11.504 1.445,6.119 11.029,8.844 11.029,8.844 0,0 -19.572,14.286 -26.275,37.177" />
      </g>
      <g
         transform="translate(202.9961,167.1123)"
         id="g208">
        <path
           inkscape:connector-curvature="0"
           id="path210"
           style="fill:#000000;fill-opacity:1;fill-rule:evenodd;stroke:none"
           d="m 0,0 0.827,3.799 c 0,0 -4.575,19.58 -3.524,25.454 1.052,5.874 9.989,11.383 9.989,11.383 0,0 -10.292,-3.013 -13.972,-9.131 -3.679,-6.119 3.417,-33.063 3.417,-33.063 z" />
      </g>
      <g
         transform="translate(116.958,224.3965)"
         id="g212">
        <path
           inkscape:connector-curvature="0"
           id="path214"
           style="fill:#000000;fill-opacity:1;fill-rule:evenodd;stroke:none"
           d="M 0,0 C 15.232,6.959 1.815,34.03 10.858,43.993 7.355,33.302 22.021,-1.788 0,0" />
      </g>
      <g
         transform="translate(110.126,285.103)"
         id="g216">
        <path
           inkscape:connector-curvature="0"
           id="path218"
           style="fill:#000000;fill-opacity:1;fill-rule:evenodd;stroke:none"
           d="M 0,0 C 8.697,10.949 20.712,16.969 30.699,17.436 18.194,11.304 12.279,6.479 7.918,-1.355 5.99,-4.819 -2.154,-2.712 0,0" />
      </g>
      <g
         transform="translate(129.6499,324.8145)"
         id="g220">
        <path
           inkscape:connector-curvature="0"
           id="path222"
           style="fill:#000000;fill-opacity:1;fill-rule:evenodd;stroke:none"
           d="m 0,0 3.213,0.373 c 0,0 9.8,-5.382 23.531,5.929 0,0 -6.09,-15.497 -23.942,-12.675 z" />
      </g>
      <g
         transform="translate(137.3652,169.3125)"
         id="g224">
        <path
           inkscape:connector-curvature="0"
           id="path226"
           style="fill:#000000;fill-opacity:1;fill-rule:evenodd;stroke:none"
           d="m 0,0 2.197,3.435 c 0,0 6.741,3.051 5.032,19.207 0,0 2.385,-7.712 4.197,-11.148 L 11.37,8.688 c 0,0 -1.906,-3.671 -2.497,-4.344 C 8.281,3.671 0,0 0,0" />
      </g>
      <g
         transform="translate(199.2222,137.2539)"
         id="g228">
        <path
           inkscape:connector-curvature="0"
           id="path230"
           style="fill:#000000;fill-opacity:1;fill-rule:evenodd;stroke:none"
           d="m 0,0 c 0,0 4.87,4.709 -2.784,13.021 0,0 8.277,-4.842 8.385,-11.772 L 3.918,1.637 C 3.918,1.637 0.437,-2.096 0,0" />
      </g>
      <g
         transform="translate(298.9072,198.8018)"
         id="g232">
        <path
           inkscape:connector-curvature="0"
           id="path234"
           style="fill:#000000;fill-opacity:1;fill-rule:evenodd;stroke:none"
           d="m 0,0 -0.314,4.009 c 0,0 4.914,-2.665 6.884,-3.154 1.97,-0.49 6.44,18.909 14.984,22.212 0,0 -2.498,-2.754 -2.433,-6.853 0.066,-4.101 27.538,30.353 35.687,48.957 8.147,18.604 -11.042,45.287 -13.932,51.65 -2.893,6.365 15.252,-12.68 24.707,-33.046 0,0 -3.145,1.617 -4.788,1.987 -1.642,0.365 1.447,-5.693 2.235,-12.791 0.79,-7.099 -15.376,-53.488 -20.369,-61.321 0,0 -1.84,-0.245 -0.79,12.729 0,0 -0.132,1.225 -1.972,-0.183 C 38.061,22.79 24.263,15.873 12.302,-1.385 0.34,-18.641 6.649,-22.802 13.352,-29.533 c 6.702,-6.734 13.755,-9.162 21.926,-4.091 8.171,5.069 -2.211,-6.436 -2.211,-6.436 0,0 -3.81,-4.407 -3.944,-8.69 -0.132,-4.284 0.134,-5.753 0.264,-6.733 0.132,-0.979 -5.654,1.715 -6.966,2.571 -1.316,0.855 -8.053,2.745 -8.053,2.745 l -4.827,-4.581 -3.206,0.565 c 9.705,20.215 -2.234,15.15 -6.203,21.203 -1.2,1.831 -2.959,1.766 -0.646,9.014 0,0 3.087,17.744 2.891,18.97 C 2.18,-3.773 0,0 0,0" />
      </g>
      <g
         transform="translate(204.4717,205.4785)"
         id="g236">
        <path
           inkscape:connector-curvature="0"
           id="path238"
           style="fill:#000000;fill-opacity:1;fill-rule:evenodd;stroke:none"
           d="m 0,0 c 0,0 -3.838,-2.242 -7.074,-3.952 -3.021,-1.595 -6.276,1.529 -7.385,4.085 -2.541,5.852 -6.288,14.195 -11.624,16.258 0,0 2.499,-2.754 2.433,-6.854 -0.065,-4.1 -27.537,30.354 -35.686,48.958 -8.148,18.604 11.04,45.286 13.932,51.65 2.891,6.364 -15.254,-12.681 -24.709,-33.046 0,0 3.147,1.616 4.789,1.986 1.643,0.366 -1.447,-5.693 -2.235,-12.791 -0.789,-7.099 15.376,-53.487 20.37,-61.32 0,0 1.839,-0.245 0.788,12.728 0,0 0.131,1.226 1.972,-0.182 1.84,-1.407 15.638,-8.324 27.599,-25.582 11.96,-17.255 5.651,-21.417 -1.051,-28.148 -6.703,-6.733 -13.755,-9.162 -21.926,-4.091 -8.171,5.07 2.211,-6.435 2.211,-6.435 0,0 3.811,-4.408 3.943,-8.691 0.132,-4.284 -0.132,-5.753 -0.262,-6.733 -0.131,-0.979 5.652,1.716 6.966,2.571 1.314,0.856 8.052,2.745 8.052,2.745 l 4.828,-4.581 3.205,0.566 c -3.83,7.978 -1.346,19.326 7.437,17.411 0.928,-0.203 1.951,-0.552 2.93,-1.05 l -0.101,3.145 -3.418,10.71 c 0,0 -3.086,17.745 -2.889,18.97 C -6.395,-8.498 -5.18,-6.006 0,0" />
      </g>
      <g
         transform="translate(303.0352,297.2881)"
         id="g240">
        <path
           inkscape:connector-curvature="0"
           id="path242"
           style="fill:#000000;fill-opacity:1;fill-rule:evenodd;stroke:none"
           d="M 0,0 C 0,0 -18.652,1.958 -23.421,-8.936 -19.831,-21.695 4.557,-15.793 0,0 m -23.396,-39.595 c -1.21,5.627 -3.926,18.674 -4.363,24.57 -0.565,7.635 -0.282,12.24 7.49,16.32 7.773,4.08 16.818,4.475 26.005,4.211 2.57,-0.073 4.443,0.028 5.853,0.271 3.391,0.58 6.39,3.285 5.979,6.626 -0.094,0.755 -0.281,1.625 -0.545,2.571 -1.572,5.656 -5.851,14.036 -9.021,16.987 -4.523,4.212 8.342,-1.183 20.778,-21.978 0,0 2.334,-3.487 2.544,-9.936 0.212,-6.45 -4.235,-21.192 -5.646,-21.98 -1.416,-0.79 -1.555,16.977 -2.826,19.215 -1.271,2.237 -7.138,2.566 -9.117,2.5 0,0 1.343,-19.807 -22.823,-21.124 0,0 2.437,-1.315 7.312,-0.986 4.878,0.328 -2.861,-3.322 -12.399,-2.139 -6.079,0.755 -6.2,-7.045 -5.427,-14.738 1.823,-18.14 0.13,-18.641 -3.794,-0.39" />
      </g>
      <g
         transform="translate(213.9082,172.2861)"
         id="g244">
        <path
           inkscape:connector-curvature="0"
           id="path246"
           style="fill:#000000;fill-opacity:1;fill-rule:evenodd;stroke:none"
           d="m 0,0 11.917,0.419 c 0,0 16.459,9.791 21.912,9.852 5.454,0.062 27.93,-9.362 33.054,-10.953 5.314,-1.65 8.358,-0.044 10.658,1.055 4.321,2.065 6.01,-1.427 6,-5.161 -0.013,-4.268 -1.702,-6.488 -1.176,-6.298 1.465,0.532 6.404,3.349 11.975,-0.572 0,0 4.106,4.833 4.327,10.261 0.22,5.427 2.06,3.714 -1.752,8.977 C 93.104,12.844 86.787,20.141 83.402,19.397 83.039,19.317 80.449,-0.234 59.854,7.703 48.42,12.108 38.562,14.68 34.225,14.68 29.888,14.68 0,0 0,0" />
      </g>
      <g
         transform="translate(371.9355,244.2295)"
         id="g248">
        <path
           inkscape:connector-curvature="0"
           id="path250"
           style="fill:#000000;fill-opacity:1;fill-rule:evenodd;stroke:none"
           d="m 0,0 -1.736,4.735 c 0,0 -2.337,-37.048 -32.829,-46.105 0,0 26.52,0.413 35.799,29.888 z" />
      </g>
      <g
         transform="translate(365.2344,380.9414)"
         id="g252">
        <path
           inkscape:connector-curvature="0"
           id="path254"
           style="fill:#000000;fill-opacity:1;fill-rule:evenodd;stroke:none"
           d="m 0,0 -2.002,-4.179 c 0,0 1.082,-28.499 -21.523,-32.662 0,0 6.046,-16.409 22.605,-19.955 l 3.317,0.856 c 0,0 -9.871,5.406 -11.991,11.022 0,0 2.236,4.038 2.628,5.018 C -6.57,-38.922 4.208,-20.93 0,0" />
      </g>
      <g
         transform="translate(284.5957,397.6948)"
         id="g256">
        <path
           inkscape:connector-curvature="0"
           id="path258"
           style="fill:#000000;fill-opacity:1;fill-rule:evenodd;stroke:none"
           d="m 0,0 8.733,-6.734 c 0,0 -10.677,1.771 -16.644,2.38 -5.968,0.608 -17.163,-6.206 -17.622,-7.162 -0.461,-0.956 7.727,1.057 16.868,0.379 9.139,-0.681 13.136,-5.461 22.614,-11.295 9.481,-5.836 -11.945,4.093 -20.5,4.702 -8.554,0.611 -19.348,-6.878 -20.042,-8.186 -0.692,-1.307 14.029,4.267 22.121,2.179 8.092,-2.091 27.206,-16.549 39.847,-21.95 12.641,-5.4 15.878,-2.96 17.187,-3.483 1.311,-0.521 -5.779,-3.744 -17.573,-0.783 -11.794,2.961 -38.996,16.199 -44.391,16.199 -5.395,0 -16.355,-2.787 -25.75,-10.102 -9.396,7.315 -20.355,10.102 -25.75,10.102 -5.395,0 -32.598,-13.238 -44.39,-16.199 -11.794,-2.961 -18.885,0.262 -17.575,0.783 1.311,0.523 4.549,-1.917 17.188,3.483 12.64,5.401 31.755,19.859 39.847,21.95 8.092,2.088 22.813,-3.486 22.121,-2.179 -0.694,1.308 -11.485,8.797 -20.041,8.186 -8.556,-0.609 -29.981,-10.538 -20.501,-4.702 9.478,5.834 13.476,10.614 22.614,11.295 9.14,0.678 17.33,-1.335 16.869,-0.379 -0.459,0.956 -11.655,7.77 -17.622,7.162 -5.967,-0.609 -16.646,-2.38 -16.646,-2.38 L -70.304,0 c 30.132,4.268 35.152,-5.128 35.152,-5.128 0,0 5.019,9.396 35.152,5.128" />
      </g>
      <g
         transform="translate(195.8511,297.2881)"
         id="g260">
        <path
           inkscape:connector-curvature="0"
           id="path262"
           style="fill:#000000;fill-opacity:1;fill-rule:evenodd;stroke:none"
           d="M 0,0 C 0,0 18.651,1.958 23.42,-8.936 19.831,-21.695 -4.558,-15.793 0,0 m 23.395,-39.595 c 1.212,5.627 3.927,18.674 4.362,24.57 0.565,7.635 0.284,12.24 -7.489,16.32 -7.774,4.08 -16.819,4.475 -26.005,4.211 -2.569,-0.073 -4.443,0.028 -5.853,0.271 -3.391,0.58 -6.39,3.285 -5.978,6.626 0.092,0.755 0.28,1.625 0.543,2.571 1.572,5.656 5.853,14.036 9.022,16.987 4.522,4.212 -8.343,-1.183 -20.779,-21.978 0,0 -2.334,-3.487 -2.544,-9.936 -0.212,-6.45 4.236,-21.192 5.649,-21.98 1.414,-0.79 1.553,16.977 2.825,19.215 1.27,2.237 7.137,2.566 9.114,2.5 0,0 -1.342,-19.807 22.824,-21.124 0,0 -2.437,-1.315 -7.311,-0.986 -4.877,0.328 2.862,-3.322 12.401,-2.139 6.076,0.755 6.198,-7.045 5.424,-14.738 -1.821,-18.14 -0.129,-18.641 3.795,-0.39" />
      </g>
      <g
         transform="translate(135.1143,357.502)"
         id="g264">
        <path
           inkscape:connector-curvature="0"
           id="path266"
           style="fill:#000000;fill-opacity:1;fill-rule:evenodd;stroke:none"
           d="m 0,0 0.807,7.758 c 0,0 2.48,-19.018 20.617,-23.791 0,0 -3.908,-3.189 -8.297,-2.88 -4.387,0.309 -6.818,3.246 -6.818,3.246 0,0 -6.178,8.018 -6.309,15.667" />
      </g>
      <g
         transform="translate(157.4517,292.5698)"
         id="g268">
        <path
           inkscape:connector-curvature="0"
           id="path270"
           style="fill:#000000;fill-opacity:1;fill-rule:evenodd;stroke:none"
           d="m 0,0 c 0,0 -3.681,-19.828 -1.84,-27.903 1.84,-8.08 17.61,-30.354 19.189,-31.7 1.577,-1.348 -3.418,13.463 -2.893,15.787 0.526,2.327 19.189,-26.925 22.343,-30.964 3.154,-4.04 16.297,-5.509 17.217,-5.631 0.92,-0.123 -9.989,5.508 -12.091,8.323 -2.104,2.816 -13.144,23.867 -13.932,24.967 -0.789,1.104 0.806,0.993 16.69,3.918 0,0 2.103,0.611 3.221,3.12 1.117,2.509 3.745,10.649 4.14,11.874 0.393,1.224 -6.704,-8.079 -8.807,-9.793 -2.102,-1.713 -25.758,1.591 -29.438,2.814 -3.68,1.226 -8.412,8.446 -9.858,11.628 C 2.495,-20.376 2.627,1.531 3.415,6.794 4.204,12.057 1.575,7.284 0,0" />
      </g>
      <g
         transform="translate(341.4385,292.5698)"
         id="g272">
        <path
           inkscape:connector-curvature="0"
           id="path274"
           style="fill:#000000;fill-opacity:1;fill-rule:evenodd;stroke:none"
           d="m 0,0 c 0,0 3.68,-19.828 1.84,-27.903 -1.84,-8.08 -17.611,-30.354 -19.19,-31.7 -1.576,-1.348 3.42,13.463 2.894,15.787 -0.526,2.327 -19.188,-26.925 -22.344,-30.964 -3.153,-4.04 -16.296,-5.509 -17.216,-5.631 -0.92,-0.123 9.989,5.508 12.092,8.323 2.103,2.816 13.144,23.867 13.932,24.967 0.79,1.104 -0.807,0.993 -16.692,3.918 0,0 -2.103,0.611 -3.22,3.12 -1.116,2.509 -3.745,10.649 -4.141,11.874 -0.393,1.224 6.705,-8.079 8.808,-9.793 2.103,-1.713 25.758,1.591 29.439,2.814 3.68,1.226 8.41,8.446 9.858,11.628 1.444,3.184 1.312,25.091 0.524,30.354 C -4.204,12.057 -1.576,7.284 0,0" />
      </g>
      <g
         transform="translate(283.8818,304.3818)"
         id="g276">
        <path
           inkscape:connector-curvature="0"
           id="path278"
           style="fill:#000000;fill-opacity:1;fill-rule:evenodd;stroke:none"
           d="m 0,0 c 0,0 12.747,5.751 19.319,5.997 0,0 2.235,-0.061 4.009,1.59 1.774,1.654 3.416,3.795 3.943,4.53 0.525,0.734 -9.645,24.278 -42.842,34.697 0,0 -0.723,0.214 -0.953,-0.153 -0.231,-0.366 19.386,-10.003 29.11,-27.629 0,0 0.132,-2.081 -1.972,-3.915 C 8.512,13.28 -8.31,4.835 -14.88,-7.65 -21.451,-20.133 -9.359,-3.732 0,0" />
      </g>
      <g
         transform="translate(215.0063,304.3818)"
         id="g280">
        <path
           inkscape:connector-curvature="0"
           id="path282"
           style="fill:#000000;fill-opacity:1;fill-rule:evenodd;stroke:none"
           d="m 0,0 c 0,0 -12.748,5.751 -19.319,5.997 0,0 -2.235,-0.061 -4.009,1.59 -1.775,1.654 -3.418,3.795 -3.943,4.53 -0.525,0.734 9.645,24.278 42.842,34.697 0,0 0.723,0.214 0.953,-0.153 0.23,-0.366 -19.386,-10.003 -29.112,-27.629 0,0 -0.131,-2.081 1.972,-3.915 C -8.513,13.28 8.308,4.835 14.88,-7.65 21.451,-20.133 9.36,-3.732 0,0" />
      </g>
      <g
         transform="translate(249.4438,325.0068)"
         id="g284">
        <path
           inkscape:connector-curvature="0"
           id="path286"
           style="fill:#000000;fill-opacity:1;fill-rule:evenodd;stroke:none"
           d="m 0,0 c 0,0 12.722,-7.956 14.037,-12.118 1.314,-4.16 -2.235,-18.479 0.658,-11.137 2.891,7.343 5.519,9.056 3.284,16.278 C 15.747,0.245 3.653,12.115 5.099,11.872 6.546,11.625 21.791,7.955 27.573,3.792 33.356,-0.368 32.438,-8.813 33.882,-3.305 35.329,2.202 32.569,5.384 32.569,5.384 11.539,24.968 4.838,23.805 6.348,28.516 7.861,33.229 16.75,37.395 16.75,37.395 L 7.466,41.246 0,37.329 -7.466,41.246 -16.75,37.395 c 0,0 8.889,-4.166 10.401,-8.879 1.512,-4.711 -5.191,-3.548 -26.218,-23.132 0,0 -2.762,-3.182 -1.316,-8.689 1.446,-5.508 0.526,2.937 6.309,7.097 5.782,4.163 21.029,7.833 22.474,8.08 1.446,0.243 -10.646,-11.627 -12.88,-18.849 -2.234,-7.222 0.394,-8.935 3.286,-16.278 2.891,-7.342 -0.657,6.977 0.657,11.137 C -12.722,-7.956 0,0 0,0" />
      </g>
      <g
         transform="translate(209.7241,172.2676)"
         id="g288">
        <path
           inkscape:connector-curvature="0"
           id="path290"
           style="fill:#000000;fill-opacity:1;fill-rule:evenodd;stroke:none"
           d="M 0,0 C 3.251,-15.074 10.977,-20.983 10.977,-20.983 8.299,-14.496 7.826,-8.178 7.899,-4.03 7.887,-1.982 5.748,-1.45 5.748,-1.45 5.307,-1.423 4.874,-1.379 4.452,-1.316 2.89,-1.08 1.401,-0.629 0,0 M -3.082,4.126 16.396,3.822 15.832,2.771 c -1.667,-3.104 -1.922,-8.125 -1.954,-11.558 -0.029,-3.328 0.17,-6.646 0.383,-9.967 0.06,-0.918 0.556,-4.887 -0.27,-5.517 -1.041,-0.793 -2.537,-0.185 -3.384,0.543 -5.633,4.395 -9.261,10.634 -11.433,17.09 -1.014,3.016 -1.959,6.779 -2.195,9.959 z" />
      </g>
      <g
         transform="translate(289.1748,172.2676)"
         id="g292">
        <path
           inkscape:connector-curvature="0"
           id="path294"
           style="fill:#000000;fill-opacity:1;fill-rule:evenodd;stroke:none"
           d="m 0,0 c -3.25,-15.074 -10.977,-20.983 -10.977,-20.983 2.678,6.487 3.152,12.805 3.079,16.953 0.012,2.048 2.152,2.58 2.152,2.58 0.438,0.027 0.872,0.071 1.295,0.134 C -2.89,-1.08 -1.401,-0.629 0,0 M 3.083,4.126 -16.396,3.822 -15.83,2.771 c 1.664,-3.104 1.92,-8.125 1.951,-11.558 0.031,-3.328 -0.17,-6.646 -0.382,-9.967 -0.058,-0.918 -0.555,-4.887 0.271,-5.517 1.042,-0.793 2.538,-0.185 3.383,0.543 5.632,4.395 9.26,10.634 11.433,17.09 1.014,3.016 1.959,6.779 2.195,9.959 z" />
      </g>
      <g
         transform="translate(266.959,287.6138)"
         id="g296">
        <path
           inkscape:connector-curvature="0"
           id="path298"
           style="fill:#000000;fill-opacity:1;fill-rule:evenodd;stroke:none"
           d="m 0,0 c -5.222,-12.642 3.904,-43.292 1.312,-49.324 -1.049,-2.448 -13.867,-6.609 -18.827,-8.2 0,0 -0.656,-0.184 -1.906,0.397 -1.248,0.582 -15.211,6.21 -17.051,6.333 -1.841,0.123 -6.834,-6.242 -7.623,-7.832 -0.789,-1.591 5.981,3.365 7.229,3.304 1.248,-0.062 15.703,-9.118 19.351,-9.851 3.647,-0.736 18.762,7.465 21.128,7.465 2.366,0 5.652,-5.143 6.572,-5.509 0.369,-0.148 0.994,1.11 1.362,3.382 C 14.146,-43.755 -1.364,-24.354 0,0" />
      </g>
      <g
         transform="translate(366.9111,326.4697)"
         id="g300">
        <path
           inkscape:connector-curvature="0"
           id="path302"
           style="fill:#000000;fill-opacity:1;fill-rule:evenodd;stroke:none"
           d="m 0,0 -2.597,-2.324 c 0,0 -24.039,0.727 -40.249,17.501 0,0 2.764,-10.04 14.856,-20.442 12.092,-10.404 15.963,-18.432 19.219,-26.964 l -1.475,-3.269 0.132,-9.669 5.052,-11.699 c 0,0 0.6,1.175 1.979,1.297 1.379,0.123 3.812,-2.694 5.192,-4.408 1.379,-1.713 0.942,-47.699 -25.124,-61.087 l 5.229,0.166 c 0,0 5.638,1.377 10.04,4.071 0,0 -3.786,-20.567 -23.917,-31.763 0,0 -5.782,-1.836 -13.536,3.183 -7.754,5.017 -13.98,9.745 -10.145,16.868 l -6.285,-0.834 c 0,0 -4.862,-17.258 -4.862,-18.849 0,-1.59 6.178,-13.095 8.674,-15.422 2.498,-2.324 17.794,-4.85 17.794,-4.85 0,0 18.612,12.682 19.925,14.031 1.315,1.346 5.074,2.151 5.837,1.65 0.765,-0.501 8.322,-3.485 8.322,-3.485 l -1.646,2.575 c -7.414,11.591 11.508,36.888 12.352,55.851 l 0.985,2.617 8.728,-8.908 3.157,1.469 -2.618,0.621 c 0,0 -6.453,1.95 -4.876,21.165 1.578,19.216 8.711,38.428 -12.966,53.833 0,0 5.607,-0.591 12.968,-6.099 7.36,-5.508 9.989,-10.159 9.989,-10.159 l 1.717,1.966 c -5.158,17.24 -31.372,21.812 -33.646,36.35 l 6.17,-3.436 6.046,5.264 z" />
      </g>
      <g
         transform="translate(198.3755,191.1787)"
         id="g304">
        <path
           inkscape:connector-curvature="0"
           id="path306"
           style="fill:#000000;fill-opacity:1;fill-rule:evenodd;stroke:none"
           d="m 0,0 1.075,4.654 c 0,0 0.148,-2.997 5.667,-1.345 5.519,1.653 9.884,1.099 12.644,1.219 0,0 -13.011,-3.12 -15.575,-6.301 C 1.249,-4.955 2.629,-9.73 2.629,-9.73 2.629,-9.73 -2.036,-3.672 0,0" />
      </g>
      <g
         transform="translate(200.3052,186.002)"
         id="g308">
        <path
           inkscape:connector-curvature="0"
           id="path310"
           style="fill:#000000;fill-opacity:1;fill-rule:evenodd;stroke:none"
           d="m 0,0 c 0.553,-3.864 7.334,2.058 15.784,1.701 0,0 -11.186,-4.667 -12.765,-8.129 C 1.44,-9.892 1.836,-14.385 1.836,-14.385 -2.499,-8.756 -1.869,-5.652 0,0" />
      </g>
      <g
         transform="translate(201.8584,170.2949)"
         id="g312">
        <path
           inkscape:connector-curvature="0"
           id="path314"
           style="fill:#000000;fill-opacity:1;fill-rule:evenodd;stroke:none"
           d="M 0,0 -0.374,9.99 C 1.577,3.052 10.498,4.187 17.369,4.527 c 0,0 -11.658,-3.119 -13.953,-6.303 -2.297,-3.182 -1.061,-7.955 -1.061,-7.955 0,0 -4.179,6.058 -2.355,9.731" />
      </g>
      <g
         transform="translate(300.5107,191.1787)"
         id="g316">
        <path
           inkscape:connector-curvature="0"
           id="path318"
           style="fill:#000000;fill-opacity:1;fill-rule:evenodd;stroke:none"
           d="m 0,0 -1.354,3.53 c 0,0 0.132,-1.593 -5.386,0.061 -5.522,1.651 -9.885,0.817 -12.647,0.937 0,0 13.014,-3.12 15.576,-6.301 2.562,-3.182 1.183,-7.957 1.183,-7.957 0,0 4.665,6.058 2.628,9.73" />
      </g>
      <g
         transform="translate(299.375,181.3477)"
         id="g320">
        <path
           inkscape:connector-curvature="0"
           id="path322"
           style="fill:#000000;fill-opacity:1;fill-rule:evenodd;stroke:none"
           d="m 0,0 -1.918,3.952 c 0,0 0.134,-1.593 -5.386,0.059 -5.519,1.651 -10.025,1.238 -12.785,1.362 0,0 12.37,-2.511 11.37,-6.905 -0.11,-0.489 1.66,-1.06 1.466,-1.576 -1.214,-3.269 1.127,-2.142 2.898,-3.015 0.943,-0.462 1.726,-3.607 1.726,-3.607 0,0 4.665,6.058 2.629,9.73" />
      </g>
      <g
         transform="translate(225.9893,152.1934)"
         id="g324">
        <path
           inkscape:connector-curvature="0"
           id="path326"
           style="fill:#000000;fill-opacity:1;fill-rule:evenodd;stroke:none"
           d="M 0,0 C 9.017,9.631 31.848,13.037 44.522,0.141 28.541,3.363 16.097,4.145 0,0" />
      </g>
    </g>
  </g>
</svg>
